<?xml version="1.0" standalone="no"?>
<!DOCTYPE svg PUBLIC "-//W3C//DTD SVG 20010904//EN"
 "http://www.w3.org/TR/2001/REC-SVG-20010904/DTD/svg10.dtd">
<svg version="1.0" xmlns="http://www.w3.org/2000/svg"
 width="1362.000000pt" height="1362.000000pt" viewBox="0 0 1362.000000 1362.000000"
 preserveAspectRatio="xMidYMid meet">

<g transform="translate(0.000000,1362.000000) scale(0.100000,-0.100000)"
fill="#000000" stroke="none">
<path d="M12168 13363 c7 -3 16 -2 19 1 4 3 -2 6 -13 5 -11 0 -14 -3 -6 -6z"/>
<path d="M12109 13334 c-13 -14 -17 -23 -9 -19 13 5 46 45 37 45 -2 0 -14 -11
-28 -26z"/>
<path d="M11853 13316 c4 -9 2 -15 -6 -13 -11 2 -12 -10 -4 -90 1 -13 5 -23
10 -23 4 0 7 -6 7 -12 0 -21 40 -79 50 -73 11 7 -8 65 -21 65 -5 0 -9 16 -9
35 0 37 15 45 39 23 8 -7 0 12 -17 42 -27 50 -64 85 -49 46z m27 -57 c0 -5 -4
-9 -10 -9 -5 0 -10 7 -10 16 0 8 5 12 10 9 6 -3 10 -10 10 -16z"/>
<path d="M12043 13298 c-18 -22 -22 -106 -7 -125 12 -16 13 -11 12 39 -2 43 2
62 16 77 16 17 16 21 4 21 -9 0 -20 -6 -25 -12z"/>
<path d="M12110 13201 c-5 -11 -10 -27 -10 -35 0 -9 -10 -26 -21 -37 -28 -28
-16 -68 25 -88 42 -20 69 -2 105 70 37 74 41 101 11 74 -11 -10 -20 -15 -20
-11 0 3 -10 0 -23 -9 -28 -18 -37 -12 -37 27 0 32 -15 37 -30 9z"/>
<path d="M12408 13143 c-10 -2 -18 -9 -18 -14 0 -5 -6 -9 -13 -9 -31 0 -71
-63 -81 -127 -8 -53 6 -68 78 -83 68 -14 102 -6 110 26 10 37 0 43 -41 29 -69
-24 -96 16 -48 73 14 17 25 35 25 41 0 6 11 21 25 33 36 31 19 46 -37 31z"/>
<path d="M11771 13089 c-2 -27 29 -103 54 -132 27 -30 71 -51 92 -43 15 6 18
36 4 36 -6 0 -9 8 -8 19 0 10 -7 37 -18 60 -15 34 -22 40 -39 35 -12 -3 -27
-12 -35 -20 -12 -11 -10 -15 12 -25 30 -14 42 -38 27 -53 -15 -14 -49 26 -57
66 -3 15 -9 28 -14 28 -4 0 -10 10 -12 23 -2 12 -5 15 -6 6z"/>
<path d="M3784 13062 c-7 -4 -28 -47 -49 -97 -81 -195 -149 -364 -177 -440
-17 -44 -38 -100 -48 -125 -272 -707 -425 -1189 -534 -1690 -31 -137 -126
-508 -251 -975 -7 -27 -34 -131 -60 -230 -25 -99 -59 -218 -75 -265 -16 -47
-40 -130 -55 -184 -14 -55 -28 -103 -30 -107 -9 -14 -35 -165 -45 -259 -6 -53
-30 -165 -55 -255 -48 -170 -74 -288 -100 -450 -27 -172 -75 -416 -100 -510
-13 -49 -35 -144 -49 -210 -14 -66 -32 -147 -40 -180 -15 -59 -40 -167 -132
-570 -49 -212 -92 -367 -205 -738 -38 -126 -91 -320 -119 -431 -72 -297 -137
-564 -171 -706 -17 -69 -39 -156 -50 -194 -28 -92 -79 -313 -140 -596 -27
-129 -67 -309 -88 -400 -67 -287 -120 -530 -151 -695 -17 -88 -50 -254 -75
-370 -25 -115 -54 -259 -66 -320 -11 -60 -48 -218 -80 -350 -33 -132 -69 -284
-80 -338 -11 -55 -31 -145 -45 -200 -13 -56 -40 -176 -59 -267 -19 -91 -42
-193 -51 -227 -10 -35 -14 -78 -11 -97 3 -20 34 -84 70 -143 35 -59 98 -167
140 -239 81 -137 124 -190 163 -200 47 -12 50 -5 68 183 9 98 21 205 26 238 5
33 12 110 15 170 10 177 38 344 105 630 83 354 259 1304 375 2030 39 243 60
346 125 609 75 307 131 622 190 1071 40 305 63 421 120 600 30 96 50 179 54
230 4 44 16 116 27 159 11 44 38 165 59 270 22 105 55 252 74 326 20 74 56
226 82 338 25 112 70 283 100 380 31 97 64 205 75 240 11 34 24 106 29 160 5
60 18 124 34 168 15 40 33 119 41 176 15 107 25 143 69 240 37 84 116 411 116
485 0 30 34 175 111 478 17 66 56 199 86 295 30 96 74 245 98 330 24 85 73
243 109 350 36 107 72 219 81 248 23 79 98 249 140 320 20 34 63 122 95 196
32 74 93 202 135 283 65 125 88 158 143 211 73 71 74 71 169 26 56 -27 110
-93 168 -204 16 -30 46 -84 66 -120 21 -36 54 -108 74 -160 20 -52 56 -142 80
-200 60 -146 167 -485 211 -670 20 -85 49 -198 65 -252 37 -119 88 -358 169
-788 18 -96 44 -227 57 -290 31 -149 45 -229 77 -430 71 -454 76 -492 106
-755 5 -44 18 -134 30 -200 11 -66 34 -201 50 -300 16 -99 38 -225 49 -280 10
-55 24 -140 30 -190 84 -695 95 -769 117 -802 18 -29 43 -29 102 1 26 13 68
26 94 30 29 4 63 19 90 39 24 18 54 40 68 49 14 8 34 32 45 52 l20 37 -37 107
c-21 59 -51 175 -67 257 -17 83 -39 179 -50 215 -38 123 -136 536 -212 885
-10 50 -24 108 -29 130 -85 344 -154 684 -180 890 -7 56 -30 145 -62 239 -36
106 -48 157 -44 179 6 31 -16 116 -52 197 -11 25 -34 117 -51 205 -17 88 -47
241 -66 340 -42 215 -67 328 -129 575 -62 250 -64 255 -97 339 -18 44 -41 141
-59 242 -16 92 -52 241 -79 331 -56 186 -99 376 -136 593 -30 174 -46 239 -85
352 -16 45 -43 137 -59 205 -17 67 -49 184 -72 258 -57 186 -77 259 -84 301
-8 56 -56 113 -117 142 -29 14 -63 37 -75 51 -23 27 -39 31 -59 18z"/>
<path d="M11644 12955 c9 -14 14 -25 11 -25 -3 0 -1 -9 5 -20 6 -11 15 -18 20
-15 5 3 21 -10 36 -30 27 -36 64 -47 64 -20 0 23 -71 87 -92 83 -6 -2 -18 9
-25 25 -8 15 -19 27 -25 27 -6 0 -3 -11 6 -25z"/>
<path d="M12174 12906 c-33 -23 -131 -158 -154 -211 -35 -83 -66 -202 -89
-345 -12 -74 -29 -178 -37 -230 -9 -52 -22 -160 -29 -240 -17 -176 -67 -414
-95 -452 -11 -15 -20 -34 -20 -42 0 -19 -145 -274 -168 -297 -10 -10 -51 -54
-92 -99 -41 -46 -109 -117 -151 -159 -43 -42 -97 -108 -122 -147 -25 -39 -58
-86 -74 -105 -16 -19 -46 -60 -68 -92 -22 -32 -45 -61 -51 -65 -6 -4 -51 -77
-100 -162 -48 -85 -134 -231 -190 -325 -56 -93 -114 -194 -130 -223 -94 -173
-125 -226 -242 -411 -104 -166 -172 -257 -315 -425 -72 -83 -159 -193 -213
-268 -46 -62 -139 -156 -304 -303 -67 -60 -159 -153 -205 -205 -58 -67 -98
-104 -136 -124 -30 -16 -95 -55 -145 -88 -50 -32 -95 -58 -99 -58 -5 0 -43
-15 -85 -34 -119 -54 -146 -59 -272 -54 -85 4 -133 12 -194 32 -109 35 -134
55 -134 109 0 90 115 445 181 558 46 80 52 85 229 203 58 39 121 83 140 98 45
33 79 47 276 113 89 29 188 67 220 83 33 17 75 37 94 45 20 8 65 39 100 69 36
30 82 66 103 80 21 14 34 29 29 32 -5 3 -37 -12 -70 -34 -127 -82 -248 -138
-309 -143 -32 -3 -89 -12 -128 -21 -38 -8 -114 -15 -168 -16 -108 0 -181 -22
-280 -83 -26 -16 -51 -26 -55 -22 -4 4 -7 48 -7 98 1 76 7 110 33 192 50 151
104 258 153 297 96 77 104 86 92 98 -15 16 -111 -40 -169 -97 -38 -38 -134
-197 -134 -222 0 -6 -31 -66 -70 -132 -67 -117 -89 -183 -76 -226 9 -30 -31
-200 -99 -418 -24 -77 -46 -162 -49 -188 -7 -60 -82 -230 -116 -264 -34 -34
-84 -58 -149 -72 -29 -6 -66 -21 -83 -32 -39 -28 -88 -28 -123 -1 -15 12 -37
22 -49 22 -59 0 -158 30 -202 62 l-46 33 -27 -33 c-15 -17 -34 -32 -42 -32 -8
0 -30 -15 -48 -34 -19 -19 -46 -40 -62 -46 -15 -7 -35 -23 -44 -36 -8 -13 -32
-32 -53 -43 -20 -11 -55 -35 -76 -55 -22 -19 -43 -33 -47 -30 -4 2 -17 -9 -29
-26 -12 -16 -28 -30 -35 -30 -8 0 -30 -14 -50 -31 -19 -17 -55 -37 -80 -45
-45 -13 -80 -38 -199 -139 -45 -38 -66 -65 -89 -115 -29 -66 -53 -100 -69
-100 -15 0 -8 104 17 271 37 248 48 299 65 299 5 0 14 15 20 34 6 19 25 50 43
68 18 19 52 72 76 119 24 46 57 97 73 114 16 16 40 50 54 76 15 31 45 64 84
94 33 25 60 50 60 56 0 5 53 62 119 127 65 64 128 136 140 160 12 23 25 42 30
42 5 0 15 15 22 32 7 18 28 49 46 69 18 20 44 61 57 90 13 30 38 70 55 89 17
19 31 41 31 48 0 19 -70 -74 -96 -128 -25 -51 -114 -145 -229 -242 -44 -37
-91 -78 -105 -90 -14 -13 -72 -59 -130 -102 -133 -100 -188 -150 -245 -220
-65 -80 -79 -76 -95 27 -15 96 -5 207 34 398 18 88 33 130 64 184 66 116 66
148 -2 80 -35 -35 -136 -223 -136 -253 0 -10 -9 -46 -20 -80 -11 -35 -20 -82
-20 -104 0 -40 -6 -68 -36 -174 -29 -105 -33 -146 -19 -214 16 -77 18 -410 3
-515 -5 -38 -9 -122 -9 -185 2 -118 -24 -266 -53 -300 -55 -66 -205 -411 -241
-555 -24 -99 -69 -198 -127 -280 -28 -38 -69 -99 -92 -135 -24 -38 -70 -89
-113 -125 -40 -33 -92 -87 -116 -121 -62 -84 -136 -141 -195 -150 -26 -4 -58
-11 -72 -16 -14 -5 -74 -14 -135 -19 -67 -5 -143 -19 -195 -35 -61 -19 -114
-27 -185 -30 -105 -4 -181 -15 -305 -44 -70 -17 -153 -29 -260 -36 -25 -2 -74
-6 -109 -10 -41 -4 -67 -2 -75 5 -6 7 -16 67 -23 134 -10 106 -9 146 8 297 88
815 105 1031 102 1315 -2 205 -17 540 -38 855 -17 252 -24 312 -37 304 -6 -4
-7 -83 -4 -203 18 -613 18 -639 -5 -787 -15 -97 -22 -197 -24 -334 -2 -107 -8
-222 -14 -255 -6 -33 -11 -77 -11 -97 0 -25 -5 -38 -13 -38 -20 0 -121 120
-285 340 -81 107 -197 258 -258 335 -146 183 -269 372 -289 444 -9 31 -32 101
-51 156 -31 86 -37 119 -45 234 -5 76 -14 139 -20 145 -8 8 -10 -27 -6 -134 4
-153 18 -218 79 -385 16 -44 35 -102 43 -130 26 -95 96 -280 125 -330 38 -66
183 -271 219 -310 26 -27 120 -174 253 -395 25 -41 67 -124 94 -185 l49 -110
0 -240 0 -240 -49 -105 c-27 -58 -68 -135 -92 -172 -24 -36 -59 -92 -78 -123
-19 -31 -62 -86 -96 -120 -51 -53 -72 -67 -128 -86 -37 -12 -96 -35 -132 -51
-48 -22 -90 -32 -160 -39 -83 -8 -109 -15 -210 -61 -63 -29 -162 -79 -219
-110 -57 -32 -105 -58 -108 -58 -9 0 -292 -176 -368 -228 -117 -81 -275 -205
-311 -244 -17 -18 -52 -63 -77 -100 -42 -60 -49 -79 -73 -190 -14 -68 -34
-163 -44 -213 -10 -49 -28 -130 -39 -180 -33 -151 -72 -395 -76 -480 -1 -44
-8 -105 -14 -135 -12 -55 -6 -180 8 -180 4 0 13 10 19 22 16 34 89 258 97 298
12 62 147 283 214 351 92 91 258 287 359 422 58 78 83 102 124 123 124 63 328
203 460 315 93 79 208 141 407 221 69 28 164 68 211 89 47 21 113 45 145 54
80 20 188 72 293 141 l87 56 70 -22 c197 -62 585 -237 640 -289 84 -78 162
-139 227 -174 36 -20 99 -65 140 -99 112 -94 310 -182 573 -254 76 -21 127
-27 327 -36 223 -9 241 -9 318 10 58 14 107 36 166 72 113 69 150 73 304 30
136 -37 232 -85 318 -157 96 -82 103 -66 15 35 -156 176 -263 259 -354 276
-20 3 -45 16 -55 27 -43 48 -122 48 -177 0 -31 -27 -165 -81 -199 -81 -9 0
-29 -6 -45 -14 -39 -19 -90 -36 -143 -48 -25 -5 -67 -16 -94 -24 -51 -15 -104
-18 -130 -8 -37 14 -10 78 73 174 79 90 94 114 129 201 72 180 101 319 113
534 10 197 34 300 90 397 22 38 39 72 36 74 -9 9 -77 -77 -105 -133 -36 -73
-114 -330 -147 -488 -44 -213 -90 -359 -130 -410 -19 -26 -35 -51 -35 -56 0
-6 -13 -30 -29 -53 -26 -37 -41 -47 -107 -70 -42 -15 -107 -43 -143 -63 -64
-34 -69 -35 -140 -28 -67 6 -78 11 -132 53 -33 25 -59 49 -59 53 0 16 42 20
170 18 81 -2 134 1 141 8 7 7 7 28 0 69 -6 33 -22 172 -36 309 -59 567 -51
533 -119 514 -21 -6 -60 -8 -87 -4 -39 6 -54 3 -76 -13 -15 -11 -53 -32 -83
-47 -91 -46 -110 -64 -110 -105 0 -20 7 -59 14 -86 15 -48 20 -72 71 -312 13
-62 35 -152 48 -200 38 -135 39 -142 23 -142 -8 0 -38 19 -68 43 -68 55 -148
107 -164 107 -6 0 -14 6 -17 13 -3 8 -71 62 -151 121 -137 101 -178 126 -362
227 -49 27 -81 53 -103 84 -18 25 -35 45 -39 45 -9 0 -47 69 -41 74 2 2 45 17
94 34 50 17 137 49 193 71 57 22 118 43 135 46 29 6 124 31 347 90 47 13 101
26 121 29 20 4 58 23 84 42 27 21 78 46 123 60 54 17 105 43 170 88 81 56 111
86 225 224 84 102 151 194 183 253 58 106 72 144 84 226 9 66 140 437 176 498
13 22 42 58 64 80 29 27 60 79 100 160 68 140 99 174 190 205 36 12 82 35 102
51 20 16 40 29 43 29 4 0 38 19 77 43 168 100 432 237 458 237 11 0 23 -13 30
-32 7 -18 36 -89 65 -158 131 -313 165 -510 185 -1079 10 -264 29 -462 53
-526 8 -22 22 -76 32 -119 15 -68 23 -85 56 -118 21 -21 39 -45 39 -52 0 -16
38 -66 51 -66 19 0 8 40 -26 86 -19 27 -43 67 -54 90 -31 66 -61 190 -61 252
0 31 -7 90 -17 130 -15 63 -15 87 -5 190 6 64 12 230 14 367 2 229 0 265 -26
429 -35 230 -49 296 -81 376 -14 36 -29 86 -32 113 -6 45 -5 47 19 47 14 0 50
-11 79 -24 30 -14 101 -34 159 -47 58 -12 117 -28 132 -35 15 -8 42 -14 60
-14 19 0 52 -9 73 -21 22 -11 61 -28 87 -39 26 -10 77 -39 112 -64 55 -39 72
-59 110 -129 99 -181 132 -275 175 -495 44 -225 53 -306 72 -665 15 -272 4
-511 -30 -682 -11 -55 -30 -152 -41 -215 -12 -63 -32 -172 -46 -243 -26 -139
-33 -343 -13 -407 6 -19 16 -66 23 -105 7 -38 17 -68 22 -65 5 3 8 67 6 150
-3 120 0 158 17 223 11 43 23 119 27 170 6 98 55 308 104 454 47 138 68 289
75 538 4 174 2 238 -10 305 -19 106 -20 203 -2 198 25 -8 75 -136 106 -273 18
-77 59 -270 91 -430 76 -371 91 -427 141 -533 22 -48 58 -136 80 -197 22 -60
58 -148 81 -195 22 -47 52 -109 66 -138 32 -66 81 -123 138 -163 39 -27 45
-28 51 -13 4 12 -6 28 -34 53 -55 49 -145 174 -173 241 -49 118 -163 475 -186
582 -28 137 -43 238 -38 253 9 22 21 19 98 -20 64 -32 77 -35 160 -35 78 0 98
4 143 27 29 14 53 30 53 34 0 19 -20 17 -54 -6 -71 -48 -127 -32 -275 79 -57
42 -175 182 -197 232 -7 17 -25 91 -39 165 -63 326 -116 499 -233 761 -33 73
-72 168 -87 211 -17 48 -60 129 -112 210 -79 121 -123 204 -123 228 0 6 30 24
68 41 37 17 103 57 147 88 78 55 220 143 280 172 17 9 55 21 85 28 30 7 84 27
120 45 130 65 229 56 454 -39 86 -36 168 -66 184 -66 39 0 282 -174 389 -278
56 -55 111 -125 176 -224 102 -154 258 -445 277 -517 6 -24 22 -67 34 -95 113
-251 306 -1019 306 -1215 0 -36 9 -113 20 -171 11 -58 20 -123 20 -146 0 -22
6 -49 14 -59 11 -16 13 -8 9 61 -3 43 -9 92 -14 109 -5 16 -12 64 -15 105 -6
79 -47 347 -65 415 -5 22 -20 101 -33 175 -54 306 -125 542 -290 964 -76 193
-96 256 -82 256 2 0 55 -27 118 -59 62 -33 165 -76 228 -96 63 -20 131 -45
151 -56 20 -10 50 -19 66 -19 33 0 139 -81 190 -146 71 -91 174 -281 217 -402
28 -80 55 -136 62 -130 2 3 -4 29 -15 59 -134 387 -121 356 -170 413 -23 26
-59 84 -80 129 -33 69 -49 90 -103 133 -118 96 -309 209 -428 253 -78 29 -150
77 -150 99 0 20 51 60 110 87 19 9 62 30 95 46 68 33 93 35 173 14 32 -9 74
-20 94 -26 20 -5 59 -27 87 -49 52 -41 66 -47 76 -30 10 17 -13 47 -42 55 -15
3 -43 19 -63 35 -49 39 -159 93 -251 124 -67 23 -83 24 -135 16 -183 -31 -387
-31 -500 -1 -52 14 -131 81 -184 157 -28 39 -64 80 -80 92 -15 12 -71 59 -122
105 -52 46 -132 106 -179 134 -46 28 -101 67 -123 85 -35 30 -38 37 -31 66 7
32 214 322 298 417 24 28 63 77 87 110 56 78 65 85 121 85 32 0 55 6 74 22 25
20 31 20 90 10 34 -7 72 -12 84 -12 13 0 53 -13 91 -30 48 -21 84 -30 122 -30
48 0 60 -4 95 -35 22 -19 67 -44 99 -56 33 -12 102 -50 155 -85 52 -35 109
-69 127 -75 21 -7 40 -26 58 -57 36 -64 62 -90 109 -114 47 -25 214 -193 326
-330 44 -53 115 -158 159 -232 111 -188 243 -362 319 -420 60 -47 156 -94 167
-83 11 11 -7 27 -55 48 -50 21 -79 48 -105 96 -8 15 -33 46 -56 68 -23 22 -53
61 -66 87 -13 26 -37 62 -53 80 -15 18 -31 42 -35 54 -3 11 -31 58 -62 104
-68 104 -94 159 -135 291 -17 57 -41 116 -53 130 -194 240 -246 297 -326 357
-76 57 -102 80 -141 131 l-33 44 44 40 c27 23 112 72 210 120 150 73 172 81
241 86 67 5 80 10 113 38 45 41 108 73 139 73 13 0 45 7 71 16 44 15 54 15
136 0 48 -9 100 -16 115 -16 14 0 47 -12 71 -26 25 -15 48 -24 51 -20 10 10
-6 21 -82 59 -128 64 -165 70 -406 69 -126 0 -242 -5 -278 -13 -68 -13 -236
-8 -252 8 -15 15 17 172 52 263 16 41 29 80 29 85 0 6 8 26 19 45 10 19 24 53
31 75 7 22 29 74 50 115 20 41 40 87 44 102 3 15 19 35 36 44 16 10 32 24 35
32 6 16 -2 32 -16 32 -18 0 -92 -76 -106 -109 -8 -19 -30 -58 -48 -87 -35 -54
-107 -213 -181 -399 -68 -169 -96 -226 -124 -247 -14 -11 -58 -50 -99 -86 -40
-37 -83 -72 -95 -79 -33 -19 -126 -15 -197 8 -92 29 -307 137 -319 159 -11 21
-25 -1 203 337 111 164 192 310 233 418 12 32 49 84 107 150 75 85 98 121 157
241 58 119 84 159 173 265 101 121 203 223 256 257 14 9 49 33 76 53 28 20 61
40 75 44 14 4 70 29 125 55 103 49 173 65 275 64 58 -1 240 -53 344 -99 31
-14 67 -25 79 -25 12 0 39 -11 59 -25 45 -30 58 -31 58 -5 0 11 -4 20 -10 20
-5 0 -20 16 -32 35 -46 69 -208 153 -367 189 -37 8 -97 27 -134 41 -81 30
-106 31 -189 5 -34 -11 -75 -20 -90 -20 -28 0 -28 0 -28 68 1 37 5 85 10 107
60 253 128 618 140 750 6 61 17 162 25 225 8 63 15 136 15 162 0 61 45 235 69
268 10 14 38 36 62 51 42 24 56 48 34 56 -6 2 -19 -3 -31 -11z"/>
<path d="M12538 12913 c7 -3 16 -2 19 1 4 3 -2 6 -13 5 -11 0 -14 -3 -6 -6z"/>
<path d="M12310 12810 c-8 -5 -22 -11 -31 -13 -9 -3 -21 -25 -28 -51 -14 -57
1 -93 55 -130 20 -13 42 -33 50 -45 21 -29 36 -26 20 4 -7 14 -14 53 -15 87
l-1 61 35 -6 c44 -7 45 6 5 61 -30 42 -57 52 -90 32z"/>
<path d="M11797 12770 c-7 -34 -26 -38 -71 -15 -42 22 -48 19 -41 -17 16 -71
61 -121 91 -97 5 4 20 5 33 2 42 -11 54 44 25 117 -19 48 -29 51 -37 10z"/>
<path d="M12129 12559 c-19 -36 -1 -126 39 -202 43 -80 65 -98 84 -67 7 11 23
20 35 20 31 0 29 25 -2 46 -14 9 -25 21 -25 28 -1 15 -46 66 -60 66 -5 0 -10
7 -10 15 0 20 19 19 27 -1 3 -8 12 -13 20 -10 8 3 11 1 8 -4 -3 -6 -3 -15 1
-21 4 -8 9 -7 15 2 8 13 27 -5 86 -80 11 -14 12 -14 13 0 0 10 -11 30 -25 45
-13 16 -32 38 -42 50 -72 85 -125 134 -145 134 -4 0 -12 -10 -19 -21z m41 -69
c0 -13 -5 -18 -15 -14 -16 7 -19 17 -8 27 12 13 23 7 23 -13z"/>
<path d="M11706 12447 c-11 -8 -20 -25 -21 -38 -1 -15 -9 -25 -23 -29 -11 -3
-30 -17 -41 -31 -19 -25 -19 -27 -3 -42 26 -23 79 -47 102 -47 35 0 80 32 80
57 0 12 -14 35 -31 51 -17 16 -34 43 -37 61 -6 29 -9 31 -26 18z"/>
<path d="M12078 12122 c-1 -4 -2 -32 -2 -62 -1 -46 -4 -55 -18 -54 -29 3 -22
-47 17 -123 19 -37 40 -75 47 -83 17 -20 54 -48 46 -35 -3 6 -8 28 -11 50 -3
22 -3 34 -1 28 3 -7 13 -13 21 -13 12 0 14 8 10 37 -4 20 -12 40 -19 45 -9 5
-7 8 8 8 11 0 26 6 32 12 10 10 15 10 22 -2 22 -35 8 5 -17 48 -47 82 -93 140
-113 145 -11 3 -21 2 -22 -1z m76 -238 c9 -24 7 -27 -9 -10 -17 17 -19 26 -6
26 5 0 12 -7 15 -16z"/>
<path d="M12500 11630 c-6 -11 -23 -55 -37 -98 -21 -65 -24 -90 -20 -158 5
-84 18 -124 42 -124 37 0 155 161 195 265 14 37 4 30 -16 -10 -9 -19 -21 -35
-26 -35 -15 0 -68 -63 -68 -82 0 -10 -7 -18 -15 -18 -8 0 -15 7 -15 16 0 12
-6 15 -25 10 -22 -6 -25 -3 -25 23 0 17 9 38 19 48 15 14 20 33 21 88 1 39 2
76 1 83 -2 19 -19 14 -31 -8z m17 -82 c-3 -7 -5 -2 -5 12 0 14 2 19 5 13 2 -7
2 -19 0 -25z"/>
<path d="M12540 11565 c0 -27 26 -41 34 -19 10 25 7 31 -14 37 -16 4 -20 0
-20 -18z"/>
<path d="M12553 11513 c5 -7 1 -23 -7 -35 -12 -19 -13 -26 -2 -41 12 -16 14
-16 20 -1 3 9 3 20 0 25 -3 6 -1 16 5 23 8 10 7 17 -6 27 -10 9 -14 9 -10 2z"/>
<path d="M12876 11361 c-4 -5 1 -8 9 -7 21 3 31 16 12 16 -9 0 -18 -4 -21 -9z"/>
<path d="M12834 11340 c-6 -6 -37 -15 -70 -20 -71 -11 -106 -46 -124 -121 -11
-44 -10 -53 11 -94 19 -37 26 -44 43 -39 29 9 96 55 96 65 0 5 7 9 15 9 18 0
19 8 3 43 -16 33 -25 34 -40 3 -9 -21 -17 -25 -49 -23 -33 1 -39 5 -39 23 0
28 30 54 63 54 16 0 27 6 27 13 0 8 11 20 25 27 14 7 32 26 39 42 16 30 16 34
0 18z"/>
<path d="M12720 11180 c0 -5 5 -10 11 -10 5 0 7 5 4 10 -3 6 -8 10 -11 10 -2
0 -4 -4 -4 -10z"/>
<path d="M12121 10986 c-18 -21 -24 -97 -16 -201 l7 -96 31 40 c39 51 76 55
68 9 0 -5 3 -8 8 -8 5 0 6 20 3 45 -2 25 1 58 8 75 11 25 10 36 -1 58 -40 80
-81 111 -108 78z"/>
<path d="M12733 10929 c-25 -9 -27 -16 -14 -73 12 -51 55 -94 100 -101 20 -3
55 -15 79 -26 53 -24 62 -24 62 1 0 13 -7 20 -19 20 -10 0 -26 11 -35 25 -9
14 -23 25 -30 25 -21 0 -42 58 -29 80 6 9 8 21 5 27 -13 20 -87 34 -119 22z"/>
<path d="M12305 10860 c-3 -5 -1 -27 4 -47 6 -21 11 -67 11 -103 0 -36 3 -75
6 -87 7 -26 24 -31 24 -7 0 8 5 12 10 9 6 -3 10 -1 10 4 0 17 35 48 48 43 7
-2 12 3 12 11 0 9 5 17 11 19 20 7 -17 75 -66 123 -46 46 -59 52 -70 35z"/>
<path d="M12484 10856 c-11 -29 101 -226 129 -226 13 0 37 47 32 63 -4 8 -15
17 -26 20 -24 6 -41 47 -27 65 16 19 28 15 69 -28 46 -47 55 -50 35 -12 -16
30 -64 77 -113 110 -35 25 -91 29 -99 8z"/>
<path d="M12900 10866 c0 -2 8 -10 18 -17 15 -13 16 -12 3 4 -13 16 -21 21
-21 13z"/>
<path d="M12982 10783 c9 -10 18 -25 21 -33 4 -11 6 -9 6 6 1 21 -16 44 -33
44 -5 0 -2 -8 6 -17z"/>
<path d="M11749 10335 c-39 -29 -68 -89 -76 -157 l-6 -48 46 0 c53 0 72 15 87
69 5 21 17 44 25 51 12 10 12 15 -1 35 -9 14 -12 33 -8 49 5 21 3 26 -13 26
-11 0 -35 -11 -54 -25z"/>
<path d="M11500 10305 c-33 -11 -35 -15 -33 -53 2 -51 37 -132 57 -132 8 0 18
10 22 23 10 32 9 156 -2 166 -5 5 -25 3 -44 -4z"/>
<path d="M11358 10164 c-5 -4 -8 -16 -8 -27 0 -15 -5 -18 -25 -13 -22 6 -25 3
-25 -21 1 -16 9 -42 18 -60 18 -34 69 -79 79 -70 9 10 16 94 9 121 -3 14 -13
26 -21 26 -7 0 -15 12 -17 26 -2 14 -6 22 -10 18z"/>
<path d="M11196 9948 c17 -48 10 -131 -13 -164 -19 -27 -21 -35 -10 -57 17
-37 57 -53 115 -48 33 3 1 142 -53 230 -38 63 -53 78 -39 39z"/>
<path d="M8738 9819 c-42 -46 -45 -63 -24 -149 30 -120 56 -146 83 -82 17 39
23 192 10 245 -10 37 -26 34 -69 -14z"/>
<path d="M8959 9802 c-32 -41 -22 -164 15 -178 25 -10 95 16 112 41 48 73 13
159 -66 161 -32 0 -45 -5 -61 -24z"/>
<path d="M12117 9793 c-3 -5 -17 -37 -32 -73 -22 -52 -27 -79 -26 -137 2 -82
27 -155 61 -173 28 -15 38 -7 71 64 25 52 29 73 29 144 0 74 -8 99 -25 72 -9
-15 -34 -12 -51 5 -11 11 -13 23 -6 47 5 18 7 39 5 46 -5 13 -19 16 -26 5z"/>
<path d="M8536 9714 c-9 -8 -20 -13 -25 -9 -13 8 -18 -82 -7 -120 17 -59 99
-117 142 -101 12 5 12 11 -5 45 -11 21 -23 69 -27 106 -9 87 -39 118 -78 79z"/>
<path d="M11820 9636 c-12 -33 -13 -53 -1 -60 8 -5 24 75 16 83 -3 2 -9 -8
-15 -23z"/>
<path d="M11975 9620 c-4 -12 -5 -24 -2 -27 3 -2 8 5 12 17 4 12 5 24 2 27 -3
2 -8 -5 -12 -17z"/>
<path d="M9592 9591 c-12 -17 -27 -50 -34 -75 -10 -39 -9 -54 6 -103 20 -65
40 -93 67 -93 32 0 40 34 35 138 -3 53 -6 105 -6 114 0 17 -25 48 -39 48 -4 0
-17 -13 -29 -29z"/>
<path d="M12317 9583 c-8 -20 -15 -69 -16 -109 -3 -115 48 -212 86 -161 22 29
73 160 73 187 0 34 -14 39 -30 10 -6 -11 -15 -20 -21 -20 -12 0 -49 84 -49
111 0 32 -27 21 -43 -18z"/>
<path d="M11860 9560 c-8 -5 -18 -6 -24 -3 -5 4 -7 -11 -3 -38 4 -32 13 -50
34 -66 39 -31 59 -29 72 8 15 43 14 64 -1 52 -23 -17 -41 -8 -52 24 -8 25 -14
30 -26 23z"/>
<path d="M7768 9510 c-39 -24 -47 -169 -11 -206 20 -20 50 -18 56 5 2 11 15
21 28 23 18 2 23 8 21 23 -2 11 -7 43 -11 72 -7 50 -32 93 -55 93 -6 0 -19 -5
-28 -10z"/>
<path d="M9875 9497 c-8 -13 -16 -52 -17 -94 -4 -90 7 -105 70 -96 40 5 43 8
37 30 -3 14 -1 40 5 59 9 28 8 41 -9 79 -16 36 -25 45 -45 45 -16 0 -31 -9
-41 -23z"/>
<path d="M8940 9482 c-18 -15 -21 -23 -14 -56 9 -50 35 -76 77 -76 64 0 76 52
26 113 -34 41 -56 46 -89 19z"/>
<path d="M7465 9417 c-19 -29 -37 -124 -29 -151 10 -34 76 -96 101 -96 36 0
39 40 13 147 -29 120 -53 148 -85 100z"/>
<path d="M9352 9403 c-37 -70 -16 -149 47 -176 44 -20 61 -21 61 -6 0 8 5 7
16 -1 12 -11 18 -11 30 2 22 22 5 58 -64 134 -60 67 -76 75 -90 47z m135 -175
c-3 -8 -6 -5 -6 6 -1 11 2 17 5 13 3 -3 4 -12 1 -19z"/>
<path d="M8780 9310 c-31 -31 -27 -81 9 -105 17 -11 33 -29 36 -40 6 -17 8
-18 12 -3 2 9 10 15 17 12 17 -7 40 48 31 75 -9 30 -54 81 -71 81 -8 0 -23 -9
-34 -20z m40 -48 c0 -5 -7 -9 -15 -9 -8 0 -12 4 -9 9 3 4 9 8 15 8 5 0 9 -4 9
-8z"/>
<path d="M6836 9269 l-39 -41 6 -80 c3 -44 10 -85 15 -90 18 -18 59 0 99 42
46 49 51 62 52 120 1 58 -18 85 -61 88 -27 1 -40 -6 -72 -39z"/>
<path d="M12490 9244 c-18 -52 -5 -98 35 -131 64 -52 99 -78 92 -67 -4 7 0 17
8 24 15 12 15 55 0 93 -4 10 -2 29 6 43 23 45 -10 71 -93 73 -33 1 -37 -2 -48
-35z"/>
<path d="M6616 9150 c-9 -22 -20 -40 -26 -40 -22 0 -8 -65 26 -126 43 -76 59
-94 85 -94 16 0 19 7 19 48 0 102 -44 252 -74 252 -8 0 -21 -18 -30 -40z"/>
<path d="M9750 9114 c-21 -55 -3 -107 43 -124 16 -5 32 -10 34 -10 2 0 12 19
22 43 10 23 26 48 35 56 9 7 16 17 16 22 0 16 -59 39 -100 39 -34 0 -42 -4
-50 -26z"/>
<path d="M7289 9106 c-20 -14 -29 -82 -16 -119 14 -40 37 -49 97 -36 47 10 52
13 47 35 -2 13 0 24 4 24 5 0 9 -8 9 -17 0 -16 1 -16 16 -1 23 23 11 62 -23
77 -87 40 -119 49 -134 37z"/>
<path d="M7743 9100 c-80 -48 -46 -184 37 -150 22 9 29 19 33 54 3 23 13 55
21 71 9 17 16 33 16 38 0 15 -76 6 -107 -13z"/>
<path d="M12072 9048 c-22 -22 -10 -148 23 -230 9 -22 31 -23 39 -2 9 23 7 36
-4 29 -6 -4 -10 8 -10 29 0 43 7 46 20 10 7 -18 15 -24 26 -20 9 4 24 -3 36
-16 l20 -23 -7 25 c-4 14 -6 42 -5 62 1 37 -27 105 -52 125 -22 18 -72 25 -86
11z"/>
<path d="M11852 8936 c-2 -85 -1 -96 17 -105 16 -9 23 -5 46 25 27 35 27 38
16 90 -12 51 -38 84 -66 84 -6 0 -11 -38 -13 -94z"/>
<path d="M12363 9020 c-29 -12 -36 -41 -24 -90 6 -22 16 -57 21 -79 12 -45 39
-75 41 -45 1 11 0 32 -1 48 -2 26 12 45 32 46 4 0 26 -24 49 -52 30 -37 40
-46 35 -28 -4 14 -14 50 -21 80 -19 73 -34 99 -67 116 -31 16 -35 16 -65 4z"/>
<path d="M3997 8983 c-11 -11 -8 -93 5 -116 6 -12 15 -38 19 -57 17 -83 57
-228 69 -251 30 -55 56 -51 74 11 17 58 12 82 -28 125 -16 17 -26 40 -26 58 0
16 -12 57 -26 91 -64 148 -70 157 -87 139z"/>
<path d="M4333 8903 c-24 -78 -28 -103 -28 -214 0 -111 2 -130 19 -148 25 -28
34 -27 47 7 6 15 24 55 40 88 17 34 32 81 35 105 4 44 4 44 -7 10 -5 -18 -12
-32 -14 -29 -7 7 17 98 25 93 4 -3 13 25 20 61 13 65 12 66 -14 92 l-27 27
-18 -24 c-18 -23 -18 -23 -24 -2 -10 40 -25 21 -54 -66z"/>
<path d="M6898 8954 c-36 -19 -45 -57 -25 -100 22 -44 54 -45 96 -2 43 44 40
78 -10 103 -33 18 -27 18 -61 -1z"/>
<path d="M6442 8920 c-9 -17 -23 -28 -30 -25 -10 4 -11 -4 -6 -33 15 -81 29
-106 64 -116 23 -7 35 -7 37 1 2 5 14 8 27 6 37 -7 39 22 7 80 -16 29 -32 67
-36 85 -9 42 -40 43 -63 2z"/>
<path d="M9590 8915 c-11 -21 -11 -34 5 -87 30 -104 65 -143 65 -72 0 54 29
100 58 89 23 -8 12 12 -28 54 -47 48 -80 53 -100 16z"/>
<path d="M3485 8858 c-15 -29 -35 -66 -45 -83 -16 -28 -15 -68 3 -66 4 1 7 -1
7 -4 0 -3 0 -12 0 -20 0 -22 -15 -18 -26 6 -8 17 -13 5 -31 -65 -31 -124 -18
-149 54 -105 42 26 123 124 123 149 0 25 -20 36 -32 19 -6 -10 -7 -6 -2 11 8
28 7 187 -2 201 -11 19 -24 8 -49 -43z m25 -92 c0 -24 -23 -41 -41 -31 -10 7
18 55 32 55 5 0 9 -11 9 -24z"/>
<path d="M3267 8873 c-4 -3 -7 -17 -7 -30 0 -16 -4 -22 -12 -17 -10 6 -10 4 0
-7 14 -15 16 -49 3 -49 -5 0 -12 8 -16 18 -6 15 -8 15 -25 -5 -20 -26 -35 -29
-44 -10 -12 25 4 -130 19 -188 21 -77 29 -86 59 -55 35 37 57 155 49 264 -6
81 -10 95 -26 79z m-17 -157 c0 -24 -16 -43 -26 -33 -8 7 7 57 17 57 5 0 9
-11 9 -24z"/>
<path d="M3151 8830 c1 -42 1 -43 10 -18 7 18 7 33 0 45 -8 14 -10 9 -10 -27z"/>
<path d="M7634 8801 c-13 -6 -24 -22 -28 -42 -10 -50 52 -139 96 -139 6 0 5 6
-2 15 -20 24 -5 106 23 127 16 12 19 20 11 28 -15 15 -75 21 -100 11z"/>
<path d="M9254 8764 c-9 -21 -13 -48 -9 -62 9 -36 50 -104 79 -131 l24 -22 21
27 c33 42 35 67 9 123 -24 50 -24 50 -4 48 12 -1 25 -11 31 -21 13 -25 35 -32
35 -12 0 9 -5 16 -11 16 -5 0 -7 4 -4 10 3 5 -5 21 -19 35 -21 21 -35 25 -81
25 -55 0 -56 -1 -71 -36z"/>
<path d="M4172 8740 c0 -14 2 -19 5 -12 2 6 2 18 0 25 -3 6 -5 1 -5 -13z"/>
<path d="M6766 8695 c-9 -13 -16 -37 -16 -52 0 -35 27 -76 45 -69 7 2 16 -3
20 -11 11 -30 46 18 52 70 5 43 4 47 -28 66 -44 27 -53 26 -73 -4z"/>
<path d="M4593 8648 c-4 -7 -12 -20 -18 -29 -5 -9 -25 -38 -43 -65 -50 -76
-55 -124 -14 -124 15 0 21 9 25 41 3 23 10 45 15 48 6 3 13 18 17 32 3 14 18
38 32 53 13 15 22 34 19 42 -7 17 -22 18 -33 2z"/>
<path d="M3076 8353 c6 -67 -3 -85 -40 -85 -35 0 -33 -12 9 -38 19 -12 38 -33
41 -46 8 -32 49 -63 74 -57 22 6 34 48 24 89 -17 69 -84 194 -104 194 -5 0 -6
-26 -4 -57z"/>
<path d="M11850 8358 c-35 -58 -42 -92 -31 -153 6 -31 18 -63 26 -72 19 -18
33 -10 16 11 -9 10 -6 25 14 64 14 28 30 54 35 57 13 8 13 75 0 75 -5 0 -12
11 -16 25 -8 34 -20 31 -44 -7z"/>
<path d="M4387 8352 c-21 -23 -37 -66 -29 -79 4 -6 25 -19 47 -31 37 -18 43
-19 70 -5 30 15 64 51 65 67 0 4 -11 1 -25 -8 -23 -15 -25 -15 -25 -1 0 15 -1
15 -16 1 -8 -9 -20 -14 -25 -11 -14 9 -11 31 6 45 8 7 15 17 15 22 0 6 -7 5
-15 -2 -12 -10 -15 -10 -15 0 0 8 -3 10 -7 7 -3 -4 -12 -2 -18 3 -8 7 -17 4
-28 -8z"/>
<path d="M3562 8323 c-16 -21 -32 -48 -36 -60 -4 -13 -11 -23 -16 -23 -12 0
-50 -84 -57 -124 -4 -26 0 -34 24 -48 29 -17 30 -17 67 13 55 46 112 137 119
193 6 43 5 47 -17 56 -13 5 -27 14 -31 19 -11 18 -22 13 -53 -26z m28 -89 c0
-31 -17 -64 -33 -64 -7 0 -6 4 3 10 11 7 12 12 3 21 -8 8 -9 18 -1 35 15 31
28 31 28 -2z m-69 -69 c5 4 9 -5 9 -18 0 -31 -26 -43 -33 -16 -3 10 -2 29 1
42 5 18 7 19 10 4 2 -9 8 -15 13 -12z"/>
<path d="M4065 8279 c-12 -19 -56 -30 -71 -18 -18 15 -34 3 -34 -25 0 -59 122
-236 162 -236 9 0 26 9 39 19 24 19 24 19 7 67 -9 27 -20 70 -24 95 -10 77
-57 134 -79 98z"/>
<path d="M4596 8108 c-17 -25 -22 -53 -7 -43 14 8 41 65 31 65 -5 0 -16 -10
-24 -22z"/>
<path d="M3024 7975 c0 -31 -6 -61 -12 -67 -7 -7 -12 -22 -12 -33 0 -28 53
-45 137 -45 45 0 64 4 76 18 25 27 21 58 -10 80 -42 29 -164 102 -172 102 -3
0 -6 -25 -7 -55z"/>
<path d="M4525 8020 c-3 -6 1 -7 9 -4 18 7 21 14 7 14 -6 0 -13 -4 -16 -10z"/>
<path d="M3650 7991 c-28 -23 -32 -31 -23 -43 10 -11 7 -13 -15 -12 -20 1 -34
-8 -55 -36 -60 -83 -64 -138 -12 -162 20 -9 36 -8 78 5 100 32 219 145 171
164 -10 4 -20 0 -26 -10 -11 -21 -48 -22 -48 -2 0 8 7 15 15 15 8 0 15 4 15 9
0 5 3 16 6 25 4 11 0 16 -14 16 -12 0 -23 9 -27 19 -12 39 -29 42 -65 12z"/>
<path d="M10750 7968 c-27 -64 -39 -181 -19 -193 14 -9 69 48 94 99 15 28 14
34 -12 88 -16 32 -31 58 -34 58 -4 0 -17 -24 -29 -52z"/>
<path d="M4538 8004 c-4 -6 -3 -26 2 -45 13 -43 13 -46 -2 -31 -17 17 -25 15
-31 -8 -9 -34 -23 -22 -20 18 l3 37 -18 -38 c-9 -22 -22 -37 -27 -35 -18 6
-30 -49 -14 -68 28 -34 193 1 223 48 8 13 2 24 -27 51 -20 18 -37 39 -37 46 0
8 -8 11 -19 8 -13 -3 -21 1 -23 12 -2 10 -6 12 -10 5z"/>
<path d="M4501 7984 c0 -11 3 -14 6 -6 3 7 2 16 -1 19 -3 4 -6 -2 -5 -13z"/>
<path d="M12063 7957 c-36 -39 -44 -64 -37 -116 4 -32 16 -61 33 -81 22 -26
31 -30 57 -25 35 8 94 58 94 81 0 11 -6 14 -22 9 -32 -10 -29 -10 -70 -2 -58
12 -82 84 -42 128 9 11 15 21 12 24 -2 3 -14 -5 -25 -18z"/>
<path d="M11237 7878 c-18 -19 -38 -53 -45 -75 -21 -70 -13 -69 23 3 19 38 42
75 52 81 9 7 14 16 10 19 -4 4 -22 -9 -40 -28z"/>
<path d="M10929 7842 c-6 -15 -13 -49 -16 -76 l-6 -49 38 7 c48 9 98 49 83 64
-8 8 -17 8 -30 1 -27 -15 -37 -3 -31 35 7 45 -22 59 -38 18z"/>
<path d="M4050 7795 c-20 -11 -25 -21 -26 -57 0 -24 -3 -50 -7 -59 -5 -9 0
-24 13 -39 11 -13 20 -27 20 -32 0 -4 6 -8 14 -8 13 0 116 102 116 116 0 21
-45 74 -72 83 -17 6 -31 11 -32 11 -1 -1 -12 -7 -26 -15z"/>
<path d="M12262 7697 c-18 -19 -22 -35 -22 -88 0 -86 12 -102 79 -103 35 -1
55 4 61 14 10 16 -4 40 -24 40 -6 1 -22 9 -34 20 -26 22 -32 72 -13 107 20 38
-14 45 -47 10z"/>
<path d="M11170 7701 c0 -14 45 -48 77 -59 32 -11 73 -6 73 9 0 13 -18 20 -25
9 -10 -17 -35 -11 -58 13 -22 23 -67 42 -67 28z"/>
<path d="M11436 7687 c-10 -15 -16 -31 -12 -34 11 -11 38 23 34 43 -3 17 -6
15 -22 -9z"/>
<path d="M11327 7673 c-11 -10 14 -33 37 -33 28 0 50 15 42 29 -8 12 -68 15
-79 4z"/>
<path d="M3105 7649 c-4 -6 -13 -8 -20 -5 -15 5 -35 -12 -35 -31 0 -9 6 -10
26 -3 14 6 27 10 29 10 1 0 10 -15 19 -34 33 -69 9 -140 -34 -101 -18 16 -21
17 -45 1 -41 -27 -32 -44 25 -44 39 0 59 6 90 29 22 16 45 29 51 29 17 0 89
80 89 99 0 10 -15 24 -35 34 -33 16 -37 16 -61 1 -24 -16 -26 -16 -40 5 -16
22 -48 28 -59 10z"/>
<path d="M11498 7583 c-39 -6 -50 -25 -43 -75 5 -31 19 -57 50 -93 24 -27 47
-46 51 -42 4 3 1 13 -6 22 -10 12 -10 15 0 15 7 0 10 7 7 14 -4 10 -1 13 9 9
7 -3 14 -1 14 5 0 13 -41 39 -74 48 -35 8 -45 24 -35 53 8 21 14 23 71 20 39
-3 63 0 65 7 7 20 -42 27 -109 17z"/>
<path d="M3232 7335 c-30 -14 -60 -25 -67 -25 -18 0 -28 -32 -14 -41 8 -4 9
-17 4 -35 -7 -29 -14 -124 -9 -124 2 0 21 9 43 21 47 24 98 79 118 126 7 19
20 36 28 40 21 8 18 40 -4 53 -28 14 -40 13 -99 -15z"/>
<path d="M12395 7296 c-17 -40 -4 -99 20 -90 21 8 38 -31 24 -54 -16 -25 -6
-59 31 -110 35 -49 47 -52 52 -14 2 19 8 27 21 26 25 -2 21 17 -13 56 -38 45
-42 110 -8 132 29 19 19 42 -31 68 -58 29 -79 26 -96 -14z"/>
<path d="M12198 7193 c-23 -6 -38 -64 -41 -155 -2 -61 2 -78 19 -103 12 -16
22 -33 22 -38 3 -32 16 -78 23 -83 12 -7 11 23 -2 47 -11 22 -21 163 -12 185
9 24 30 15 43 -16 7 -17 21 -36 30 -43 10 -7 19 -21 21 -32 3 -11 11 -20 19
-20 22 0 16 99 -9 159 -41 94 -62 113 -113 99z"/>
<path d="M3328 7112 c-26 -14 -45 -29 -42 -33 3 -5 -2 -9 -10 -9 -9 0 -16 -5
-16 -11 0 -5 5 -7 10 -4 6 3 10 -5 10 -19 0 -14 -6 -26 -16 -28 -13 -2 -12 -8
8 -29 14 -15 28 -35 32 -44 6 -16 10 -15 38 11 33 31 78 117 78 150 0 22 -18
45 -34 43 -6 -1 -32 -13 -58 -27z"/>
<path d="M3219 7027 c-19 -14 -43 -57 -32 -57 13 0 64 58 56 63 -5 3 -15 0
-24 -6z"/>
<path d="M11676 6879 c-68 -20 -85 -40 -86 -94 0 -31 9 -51 38 -90 31 -41 45
-51 81 -58 62 -12 72 3 30 45 -19 18 -34 42 -35 52 -1 11 -13 28 -28 39 -31
22 -33 42 -7 57 25 13 94 13 86 0 -3 -5 -2 -10 4 -10 11 0 47 49 40 53 -34 21
-71 23 -123 6z"/>
<path d="M8605 6758 c-25 -15 -67 -64 -82 -97 -19 -42 -16 -99 6 -110 23 -13
76 3 106 30 11 10 30 27 41 37 28 25 39 84 22 120 -15 30 -59 40 -93 20z"/>
<path d="M10601 6523 c-32 -38 -80 -168 -67 -180 4 -4 11 -2 15 5 6 10 11 10
21 -3 7 -8 18 -15 25 -15 7 0 19 -16 27 -36 12 -30 13 -43 3 -72 -12 -34 -10
-72 5 -72 9 0 30 46 30 66 0 9 16 35 35 58 49 60 88 152 81 191 -7 36 -38 69
-79 84 -46 18 -64 13 -96 -26z"/>
<path d="M11346 6500 c-49 -66 -61 -106 -27 -95 11 3 22 1 26 -5 12 -19 23
-10 35 28 16 50 22 54 46 37 27 -18 32 -101 8 -146 -18 -37 -11 -78 9 -44 11
20 17 258 7 268 -3 3 -17 8 -31 12 -23 6 -31 0 -73 -55z"/>
<path d="M11773 6513 c-23 -3 -33 -10 -38 -30 -9 -39 37 -146 94 -214 12 -15
15 -14 37 6 29 27 31 59 5 77 -25 18 -54 76 -47 95 6 16 26 14 83 -8 15 -6 29
-9 29 -7 1 2 11 -6 23 -16 30 -27 28 -1 -3 45 -21 31 -33 38 -82 47 -32 7 -60
11 -63 10 -3 0 -20 -3 -38 -5z"/>
<path d="M7560 6358 c-41 -24 -74 -60 -95 -103 -13 -27 -13 -31 3 -43 13 -10
16 -26 15 -65 -1 -29 0 -81 3 -117 l6 -65 18 35 c28 53 70 95 117 119 47 23
64 60 44 92 -6 10 -11 36 -11 56 0 44 -17 80 -45 99 -18 12 -25 11 -55 -8z"/>
<path d="M8050 6332 c-65 -64 -66 -150 -5 -214 24 -24 52 -41 83 -48 65 -17
114 -18 119 -2 3 7 -4 12 -16 12 -27 0 -41 29 -41 84 0 29 -6 50 -15 58 -9 7
-27 24 -41 37 l-26 24 32 29 c26 23 30 31 20 43 -23 28 -69 18 -110 -23z"/>
<path d="M8713 6337 c-4 -8 -16 -16 -25 -20 -30 -11 -82 -133 -124 -294 -21
-80 1 -112 34 -52 24 42 44 69 37 49 -6 -18 20 -54 33 -46 5 3 13 21 16 40 5
25 13 36 28 38 25 4 31 21 48 139 10 67 10 93 1 122 -13 38 -33 48 -48 24z"/>
<path d="M10506 6325 c-3 -9 -6 -22 -5 -28 0 -7 5 -1 10 12 5 13 8 26 5 28 -2
2 -6 -3 -10 -12z"/>
<path d="M9756 6283 c-11 -11 -6 -23 9 -23 8 0 15 4 15 9 0 13 -16 22 -24 14z"/>
<path d="M9504 6221 c-43 -26 -73 -71 -72 -109 1 -18 5 -32 10 -32 4 0 8 4 8
8 0 5 9 19 19 31 l19 22 22 -31 c13 -19 19 -37 15 -50 -11 -34 4 -22 35 27 31
49 38 99 20 134 -13 24 -36 24 -76 0z"/>
<path d="M10481 6214 c0 -11 3 -14 6 -6 3 7 2 16 -1 19 -3 4 -6 -2 -5 -13z"/>
<path d="M11592 6203 c-5 -10 -19 -51 -31 -92 -18 -60 -20 -76 -9 -82 20 -13
26 -11 44 16 22 34 37 31 52 -7 18 -47 34 -18 26 47 -13 100 -58 165 -82 118z"/>
<path d="M10810 6184 c-6 -14 -10 -34 -10 -45 0 -11 -10 -52 -22 -93 -26 -89
-20 -131 18 -123 23 4 52 -20 68 -56 9 -23 34 23 46 88 17 88 0 188 -38 228
-32 34 -50 34 -62 1z m60 -128 c0 -51 -15 -67 -35 -40 -18 24 -19 51 -2 69 24
27 37 17 37 -29z"/>
<path d="M10471 6164 c0 -11 3 -14 6 -6 3 7 2 16 -1 19 -3 4 -6 -2 -5 -13z"/>
<path d="M6694 6162 c-6 -4 -28 -42 -48 -85 -47 -99 -46 -138 1 -148 49 -10
68 10 98 105 27 86 27 106 -2 106 -9 0 -21 7 -27 15 -6 8 -16 11 -22 7z"/>
<path d="M11786 6105 c-4 -17 0 -93 9 -170 18 -164 23 -195 36 -195 19 0 31
53 20 86 -14 39 -14 111 -1 119 12 7 51 -30 95 -89 51 -70 39 -19 -26 114 -56
113 -67 128 -85 124 -15 -4 -23 1 -31 18 -10 23 -10 23 -17 -7z"/>
<path d="M9441 5992 c-2 -70 127 -267 161 -246 13 8 9 71 -8 113 -11 27 -26
45 -50 56 -21 10 -42 30 -51 51 -9 19 -22 34 -29 34 -7 0 -15 6 -17 13 -3 6
-6 -3 -6 -21z"/>
<path d="M10702 6000 c0 -14 2 -19 5 -12 2 6 2 18 0 25 -3 6 -5 1 -5 -13z"/>
<path d="M9683 6003 c-16 -6 -16 -61 1 -139 16 -73 21 -84 46 -84 21 0 26 18
33 127 4 50 2 61 -9 56 -8 -3 -14 1 -14 11 0 12 -30 38 -42 35 -2 0 -9 -3 -15
-6z"/>
<path d="M6891 5943 c-13 -9 -40 -16 -61 -15 -51 2 -90 -29 -90 -71 0 -87 49
-155 91 -129 12 8 19 8 19 2 0 -12 57 -13 64 -1 3 4 8 33 12 62 4 30 12 74 20
97 20 69 -3 92 -55 55z m-111 -123 c0 -5 -2 -10 -4 -10 -3 0 -8 5 -11 10 -3 6
-1 10 4 10 6 0 11 -4 11 -10z m17 -12 c-3 -8 -6 -5 -6 6 -1 11 2 17 5 13 3 -3
4 -12 1 -19z"/>
<path d="M8033 5943 c-26 -10 -14 -90 25 -175 43 -92 67 -121 83 -97 5 8 6 26
3 41 -6 31 12 98 27 98 12 0 12 37 -1 60 -12 23 -93 80 -112 79 -7 0 -19 -3
-25 -6z"/>
<path d="M9912 5909 c-72 -36 -91 -99 -47 -160 40 -53 75 -60 75 -13 0 14 12
45 26 69 l25 44 -22 30 c-12 16 -18 34 -15 40 9 15 8 14 -42 -10z"/>
<path d="M11173 5874 c-3 -9 0 -39 6 -68 7 -28 16 -80 21 -115 5 -35 16 -71
24 -79 15 -15 16 -13 16 25 0 23 4 44 9 47 4 3 11 19 14 36 8 37 30 40 25 3
-3 -22 1 -26 25 -27 21 -1 27 3 27 19 -1 35 -53 120 -76 123 -12 2 -32 14 -45
28 -26 28 -37 30 -46 8z"/>
<path d="M7431 5856 c-16 -29 -11 -61 9 -61 10 0 16 13 18 43 3 47 -8 54 -27
18z"/>
<path d="M7586 5805 c-9 -27 -21 -69 -27 -92 -12 -47 -9 -111 5 -103 10 6 55
-77 56 -102 0 -26 19 -22 24 5 44 202 41 260 -12 314 l-29 29 -17 -51z"/>
<path d="M10943 5673 c-10 -16 -33 -42 -50 -59 -31 -29 -45 -74 -23 -74 15 0
24 -69 11 -96 -16 -36 2 -68 35 -61 15 2 31 -2 40 -11 30 -30 39 2 41 145 2
176 -13 219 -54 156z"/>
<path d="M8717 5633 c-8 -10 -19 -30 -22 -46 -4 -15 -20 -37 -35 -50 -20 -17
-28 -35 -32 -71 -3 -27 -11 -52 -18 -56 -6 -4 -13 -13 -14 -21 -2 -8 -10 -30
-19 -49 -8 -19 -13 -38 -11 -42 9 -14 -16 -9 -42 9 -22 14 -27 14 -35 2 -13
-20 -11 -29 5 -29 8 0 26 -14 41 -32 25 -30 27 -37 21 -93 l-5 -60 24 40 c14
22 25 44 25 48 0 5 15 34 33 65 39 68 63 131 72 192 4 25 16 65 26 89 19 44
26 121 11 121 -5 0 -16 -8 -25 -17z"/>
<path d="M9807 5606 c-33 -33 -34 -68 -4 -122 34 -63 97 -133 81 -90 -4 11 4
16 28 18 29 3 33 7 36 35 3 32 -21 75 -89 155 l-25 31 -27 -27z"/>
<path d="M11300 5596 c0 -8 5 -18 10 -21 6 -3 10 1 10 9 0 8 -4 18 -10 21 -5
3 -10 -1 -10 -9z"/>
<path d="M6663 5574 c-7 -20 13 -64 38 -82 10 -7 26 -37 34 -65 13 -45 21 -55
51 -69 31 -14 38 -14 65 -1 38 19 44 34 33 86 -7 32 -16 45 -39 56 -17 8 -34
20 -38 28 -14 23 -85 63 -112 63 -14 0 -28 -7 -32 -16z"/>
<path d="M8952 5429 c-18 -29 -17 -217 2 -262 18 -44 36 -56 36 -25 0 13 4 29
9 37 8 12 12 12 25 -2 9 -8 16 -20 16 -26 0 -6 5 -11 10 -11 6 0 10 6 10 14 0
28 59 -13 76 -52 12 -29 17 -34 24 -22 6 11 -6 61 -33 150 -37 117 -47 139
-84 177 -47 47 -72 54 -91 22z"/>
<path d="M7807 5409 c-30 -35 -25 -110 14 -185 22 -44 38 -64 50 -64 23 0 24
16 5 61 -9 22 -11 42 -5 63 5 17 6 51 3 76 -10 71 -34 88 -67 49z"/>
<path d="M9703 5391 c0 -11 5 -18 9 -15 4 3 5 11 1 19 -7 21 -12 19 -10 -4z"/>
<path d="M9626 5342 c-7 -22 30 -168 50 -199 15 -24 29 -29 38 -15 3 5 15 8
28 7 13 -1 30 4 40 12 11 10 18 11 23 4 3 -6 16 -11 28 -11 19 0 15 7 -25 43
-28 25 -51 57 -58 79 -8 25 -16 35 -26 31 -8 -3 -17 3 -20 13 -18 50 -67 72
-78 36z"/>
<path d="M9922 5349 c-20 -7 -21 -11 -10 -29 18 -29 48 -26 48 4 0 31 -8 36
-38 25z"/>
<path d="M8031 5311 c-26 -61 -19 -137 22 -221 44 -91 61 -117 53 -79 -4 18 1
32 14 47 17 18 19 30 14 79 -7 62 -44 147 -68 156 -8 3 -16 16 -18 29 -3 21
-4 20 -17 -11z"/>
<path d="M6266 5301 c-4 -7 -5 -15 -2 -18 9 -9 19 4 14 18 -4 11 -6 11 -12 0z"/>
<path d="M11240 5274 c1 -65 35 -204 52 -204 4 0 8 10 8 23 0 12 5 29 10 37 8
12 13 11 34 -9 13 -13 30 -36 36 -52 7 -16 18 -29 26 -29 7 0 20 -9 28 -21 9
-13 19 -18 27 -13 9 5 10 2 6 -10 -4 -9 -3 -14 2 -11 5 3 12 -5 14 -17 4 -22
4 -22 6 2 1 27 -48 179 -72 226 -19 35 -74 94 -88 94 -6 0 -19 -5 -29 -10 -15
-8 -23 -5 -40 12 l-20 22 0 -40z"/>
<path d="M6030 5160 c5 -18 12 -35 16 -39 9 -9 -7 53 -17 63 -5 5 -4 -5 1 -24z"/>
<path d="M6080 5125 c-18 -19 -20 -27 -11 -44 23 -41 105 -67 117 -36 12 31
-6 65 -45 84 l-38 20 -23 -24z"/>
<path d="M8990 5103 c0 -5 7 -18 15 -29 15 -18 15 -18 13 5 -3 23 -28 44 -28
24z"/>
<path d="M11047 5077 c-8 -12 -35 -47 -61 -77 -25 -29 -46 -60 -46 -67 0 -7
10 -23 21 -34 l22 -22 16 22 c13 17 19 19 29 9 6 -6 12 -23 12 -36 0 -24 24
-51 46 -52 6 0 16 24 23 53 11 46 10 59 -8 116 -12 35 -21 72 -21 82 0 28 -16
31 -33 6z"/>
<path d="M6832 5030 c0 -19 2 -27 5 -17 2 9 2 25 0 35 -3 9 -5 1 -5 -18z"/>
<path d="M11309 5023 c36 -72 91 -96 76 -34 -7 30 -31 52 -50 45 -7 -3 -15 2
-18 10 -4 9 -11 16 -17 16 -6 0 -2 -17 9 -37z"/>
<path d="M7095 5017 c-4 -8 -17 -18 -30 -21 -33 -8 -66 -43 -109 -114 -36 -59
-45 -92 -26 -92 16 0 12 -27 -5 -33 -21 -9 0 -63 28 -71 44 -11 117 49 117 97
0 8 11 18 25 21 29 7 30 15 9 96 -12 47 -13 68 -5 92 11 31 7 54 -4 25z m-35
-99 c0 -18 -2 -20 -9 -8 -6 8 -7 18 -5 22 9 14 14 9 14 -14z"/>
<path d="M8590 4997 c-27 -34 -28 -37 -84 -216 -36 -113 -41 -145 -30 -175 9
-22 16 -20 54 14 18 17 37 30 40 30 4 0 20 28 36 63 25 56 28 75 32 190 4 141
-3 153 -48 94z"/>
<path d="M8897 4963 c-13 -13 6 -168 26 -216 22 -53 50 -61 55 -15 2 15 9 32
17 38 10 8 18 3 34 -23 12 -19 21 -41 21 -49 0 -15 19 -38 32 -38 14 0 9 73
-9 120 -43 116 -141 218 -176 183z"/>
<path d="M11517 4894 c-10 -10 -9 -64 2 -64 5 0 11 6 13 13 7 17 -6 60 -15 51z"/>
<path d="M11211 4867 c-17 -21 -43 -147 -36 -178 3 -15 17 -35 31 -43 13 -9
24 -25 24 -36 0 -37 18 -29 24 11 7 42 36 97 36 69 0 -13 2 -13 10 0 9 13 11
13 20 0 8 -12 10 -11 10 8 0 24 -52 136 -78 165 -18 20 -26 21 -41 4z"/>
<path d="M7278 4797 c-31 -34 -63 -80 -72 -101 -21 -50 -20 -71 1 -28 9 19 21
31 29 28 7 -3 15 6 18 20 4 14 11 22 16 19 6 -3 10 -1 10 4 0 6 7 11 15 11 8
0 15 5 15 10 0 6 4 10 9 10 18 0 -2 -75 -26 -97 -12 -12 -23 -19 -23 -15 -1 4
-9 -3 -20 -16 -14 -17 -25 -21 -44 -16 -24 6 -26 3 -26 -24 0 -49 53 -73 101
-45 35 21 106 122 92 131 -8 6 -12 33 -17 141 -2 42 -21 34 -78 -32z m60 -124
c-2 -9 -8 -18 -15 -20 -7 -3 -9 3 -6 16 6 25 26 28 21 4z m-18 -40 c0 -5 -8
-17 -17 -28 -14 -18 -15 -18 -9 -2 3 10 6 23 6 28 0 5 5 9 10 9 6 0 10 -3 10
-7z"/>
<path d="M9288 4746 c-84 -41 -119 -108 -78 -151 25 -26 42 -24 80 10 14 13
41 25 61 29 33 6 38 11 47 47 12 47 8 65 -16 72 -9 3 -24 7 -32 11 -8 3 -36
-5 -62 -18z"/>
<path d="M8856 4571 c-11 -17 -28 -244 -21 -280 6 -29 8 -31 18 -16 12 15 14
15 31 -4 28 -31 35 -26 42 28 3 28 12 52 19 55 11 4 10 18 -2 73 -22 101 -68
175 -87 144z"/>
<path d="M9190 4516 c0 -14 5 -26 10 -26 6 0 10 9 10 19 0 11 -4 23 -10 26 -6
4 -10 -5 -10 -19z"/>
<path d="M9453 4503 c-57 -61 -65 -90 -57 -206 5 -75 12 -111 26 -135 24 -39
38 -33 38 17 0 20 7 46 15 57 8 10 15 33 15 50 0 30 21 60 32 48 3 -3 11 11
18 30 6 20 16 36 22 36 14 0 3 106 -13 126 -21 25 -59 16 -96 -23z"/>
<path d="M7500 4521 c-8 -5 -31 -11 -51 -15 -36 -6 -67 -32 -89 -75 -10 -20
-9 -28 7 -50 43 -57 121 -82 193 -62 29 8 37 39 19 73 -16 28 -12 77 7 99 18
20 8 30 -21 23 -13 -3 -26 -1 -29 5 -8 13 -16 13 -36 2z"/>
<path d="M9854 4509 c-29 -33 -25 -116 8 -167 26 -38 28 -39 75 -34 37 3 58
13 90 41 40 34 42 39 39 80 -5 56 -20 70 -97 87 -85 18 -93 17 -115 -7z"/>
<path d="M8602 4367 c-66 -68 -97 -240 -68 -377 9 -41 23 -81 31 -90 15 -14
15 -6 9 86 -9 128 10 171 56 129 22 -20 59 -8 72 24 5 14 12 67 15 116 5 82 3
92 -17 118 -29 36 -59 34 -98 -6z"/>
<path d="M9682 4384 c-12 -8 -29 -32 -38 -52 -13 -31 -14 -46 -3 -95 6 -31 21
-67 31 -80 11 -12 35 -45 53 -73 35 -54 55 -74 55 -54 0 7 7 10 15 6 11 -4 15
2 15 22 0 29 -11 53 -26 55 -5 1 -9 38 -10 81 0 59 -5 82 -16 90 -8 6 -19 27
-23 46 -4 19 -13 43 -19 52 -11 16 -14 16 -34 2z"/>
<path d="M9751 4364 c0 -11 3 -14 6 -6 3 7 2 16 -1 19 -3 4 -6 -2 -5 -13z"/>
<path d="M10090 4294 c-12 -22 -12 -27 0 -34 8 -6 17 -10 20 -10 3 0 12 4 20
10 12 7 12 12 0 34 -7 14 -16 26 -20 26 -4 0 -13 -12 -20 -26z"/>
<path d="M9541 4294 c0 -11 3 -14 6 -6 3 7 2 16 -1 19 -3 4 -6 -2 -5 -13z"/>
<path d="M5648 4233 c-35 -4 -38 -6 -38 -37 0 -18 6 -71 14 -117 8 -46 17
-129 20 -184 3 -55 13 -181 21 -280 8 -99 19 -243 25 -320 15 -202 17 -214 30
-230 8 -10 18 -11 36 -4 34 12 114 11 153 -2 27 -10 39 -8 88 17 31 16 79 49
106 74 l49 45 -16 60 c-52 190 -104 441 -145 695 -17 102 -35 209 -41 238
l-12 52 -126 -2 c-70 -1 -144 -3 -164 -5z"/>
<path d="M6781 4158 c-16 -35 -34 -90 -40 -123 -7 -33 -17 -79 -23 -102 -6
-23 -8 -50 -4 -59 6 -16 8 -16 25 1 28 24 54 15 65 -23 11 -39 20 -40 43 -5
15 23 18 50 18 173 0 149 -10 200 -41 200 -7 0 -26 -28 -43 -62z"/>
<path d="M9540 4166 c0 -31 6 -34 13 -6 3 11 1 23 -4 26 -5 3 -9 -6 -9 -20z"/>
<path d="M7481 4127 c-26 -26 -1 -116 49 -177 20 -24 21 -25 35 -6 24 32 18
84 -15 137 -34 51 -51 64 -69 46z"/>
<path d="M7003 4093 c-10 -25 -18 -81 -21 -160 -4 -114 -3 -123 14 -129 11 -3
27 -10 37 -15 40 -22 87 64 87 158 0 142 -78 238 -117 146z"/>
<path d="M7249 4039 c-31 -58 21 -354 72 -413 9 -10 61 93 53 105 -2 4 -9 54
-14 111 -12 116 -32 181 -63 203 -28 20 -34 19 -48 -6z"/>
<path d="M4438 3982 c-27 -18 -42 -38 -53 -71 -10 -30 -28 -55 -49 -71 -36
-27 -60 -81 -71 -163 -3 -26 -17 -78 -30 -116 -13 -37 -31 -113 -40 -167 -9
-54 -22 -135 -30 -179 -26 -140 -34 -208 -35 -289 0 -57 -4 -84 -15 -96 -17
-19 -48 -166 -70 -330 -23 -172 -35 -252 -47 -304 -8 -37 -7 -62 3 -104 13
-53 12 -57 -14 -104 -21 -37 -27 -62 -27 -107 0 -32 -7 -78 -15 -101 -11 -32
-15 -84 -14 -204 1 -103 -3 -174 -11 -196 -7 -19 -16 -87 -20 -150 -12 -160
-27 -290 -45 -390 -15 -79 -21 -133 -44 -423 -5 -61 -14 -132 -20 -157 -11
-51 -17 -197 -8 -206 11 -11 98 69 112 104 8 18 43 70 78 115 69 88 100 167
110 279 4 37 13 67 28 87 19 26 21 34 11 56 -7 14 -12 44 -12 66 0 64 51 229
83 269 18 22 123 287 142 360 7 26 29 70 49 99 20 29 36 64 36 76 0 36 61 95
97 95 40 0 53 -32 51 -130 -2 -69 2 -83 41 -170 42 -94 43 -96 35 -170 -4 -41
-6 -151 -5 -244 3 -134 7 -181 22 -224 14 -41 19 -84 19 -166 0 -147 17 -329
34 -369 7 -18 23 -41 35 -51 21 -19 21 -19 70 27 26 25 70 57 97 70 44 23 114
98 130 142 3 8 30 33 60 56 41 31 57 51 66 83 13 46 71 105 104 106 29 0 56
33 103 127 61 123 55 216 -13 199 -43 -11 -196 -175 -230 -248 -10 -21 -26
-40 -36 -43 -11 -3 -35 -28 -54 -55 -27 -37 -39 -47 -55 -43 -40 10 -44 27
-47 226 -7 385 -9 400 -60 477 -28 41 -30 76 -8 109 15 20 16 42 10 153 -4 72
-14 156 -22 187 -8 31 -14 74 -13 96 1 43 -34 213 -50 242 -5 10 -30 29 -54
42 l-45 25 -56 -47 c-30 -26 -69 -66 -87 -90 -18 -23 -68 -79 -111 -123 -43
-45 -78 -87 -78 -93 0 -16 -41 -103 -57 -122 -30 -36 -82 -131 -98 -181 -10
-29 -33 -84 -51 -122 -19 -37 -34 -77 -34 -87 0 -26 -48 -49 -61 -28 -15 24
-10 222 12 412 11 100 24 247 29 327 11 184 24 286 43 330 8 19 17 88 21 155
9 167 21 235 62 350 20 55 40 129 45 165 4 36 13 99 18 140 6 41 17 100 26
130 8 30 15 73 15 97 0 23 8 64 18 90 10 26 25 74 32 105 16 69 42 102 73 92
26 -7 41 -17 101 -68 25 -21 52 -36 60 -33 7 3 31 34 51 69 21 35 50 77 66 93
39 42 44 87 21 178 -27 103 -45 130 -81 122 -19 -4 -35 0 -53 15 -39 30 -139
26 -190 -8z"/>
<path d="M7052 3013 c-45 -4 -54 -8 -66 -32 -8 -15 -22 -33 -30 -41 -27 -22
-103 -143 -116 -185 -7 -22 -23 -53 -35 -70 -45 -63 -69 -203 -25 -150 7 8 23
15 36 15 23 0 95 65 137 125 21 29 58 33 78 9 7 -9 13 -39 13 -68 0 -40 -7
-65 -32 -109 -18 -32 -37 -79 -42 -105 -24 -119 -38 -180 -49 -199 -6 -12 -27
-65 -46 -119 -20 -54 -42 -105 -50 -114 -7 -8 -23 -49 -34 -90 -11 -41 -34
-104 -52 -140 -17 -36 -42 -95 -55 -132 -12 -38 -30 -78 -38 -90 -9 -12 -16
-30 -16 -38 0 -9 -21 -49 -46 -89 -36 -56 -48 -85 -53 -130 -6 -49 -14 -66
-44 -100 -20 -22 -41 -59 -47 -83 -6 -24 -14 -52 -17 -63 -3 -11 -34 -58 -68
-105 -35 -47 -82 -116 -105 -155 -23 -38 -48 -73 -54 -77 -30 -20 -34 -7 -33
110 2 107 -1 128 -35 247 -42 147 -54 246 -68 545 -20 419 -20 450 -3 499 11
34 14 64 9 119 -11 120 -36 141 -101 87 -24 -19 -48 -35 -54 -35 -6 0 -19 -17
-28 -37 -12 -25 -27 -40 -43 -43 -14 -3 -36 -12 -50 -21 -14 -9 -42 -22 -63
-29 -30 -9 -49 -27 -93 -90 -30 -44 -70 -88 -89 -100 -38 -23 -71 -103 -60
-142 25 -91 45 -99 77 -34 13 28 30 47 44 50 12 3 25 15 29 25 10 32 32 44 68
37 23 -4 38 -15 45 -32 18 -37 34 -206 24 -235 -10 -26 -6 -46 13 -69 18 -20
26 -105 29 -290 1 -85 5 -177 10 -203 6 -31 4 -62 -4 -91 -11 -41 -10 -46 24
-115 36 -71 36 -72 25 -130 -11 -51 -10 -73 10 -177 13 -66 25 -162 27 -214 5
-140 12 -175 39 -204 13 -14 28 -26 33 -26 19 0 84 83 112 141 15 32 41 74 58
93 16 19 33 49 37 68 8 39 85 154 144 216 23 24 50 61 61 82 11 22 33 49 50
61 16 12 32 34 35 48 3 15 25 47 48 73 23 25 52 65 64 89 67 134 117 252 134
317 10 41 35 113 55 160 51 122 84 220 84 247 0 13 13 43 29 67 46 69 169 515
180 653 4 44 14 96 23 115 45 96 78 188 78 221 0 20 9 65 20 100 25 78 23 100
-12 116 -14 7 -31 27 -37 43 -5 17 -16 29 -23 28 -7 -1 -37 -3 -66 -5z"/>
<path d="M10782 2804 c-19 -8 -42 -59 -42 -92 0 -32 33 -82 55 -82 15 0 22
-22 31 -101 5 -44 3 -57 -10 -68 -9 -7 -16 -21 -16 -31 0 -10 -7 -20 -14 -23
-34 -13 -26 -138 8 -137 19 1 93 73 112 110 26 51 23 154 -8 265 -14 50 -30
106 -35 125 -7 29 -13 35 -38 37 -17 1 -36 -1 -43 -3z"/>
<path d="M2959 2540 c-20 -12 -133 -23 -211 -21 -52 2 -58 -1 -78 -29 -17 -24
-28 -30 -59 -30 -53 0 -96 -32 -150 -112 -25 -36 -58 -77 -73 -91 -37 -34 -94
-152 -149 -307 -19 -54 -53 -224 -69 -350 -5 -36 -16 -79 -25 -95 -12 -23 -14
-46 -9 -97 7 -77 -9 -122 -58 -163 -29 -25 -30 -26 -18 -73 9 -41 8 -64 -9
-149 -12 -56 -21 -115 -21 -131 0 -17 -5 -43 -11 -59 -6 -15 -15 -57 -19 -93
-5 -36 -18 -105 -30 -155 -23 -95 -23 -122 -1 -365 13 -141 14 -144 65 -136
22 4 54 15 71 24 34 20 90 109 106 167 6 22 19 49 29 60 21 24 55 102 70 165
6 25 26 68 44 95 79 120 93 145 109 196 9 30 19 71 22 91 3 21 20 54 40 78 19
23 35 52 35 63 0 38 58 179 85 207 15 15 31 47 36 71 16 72 30 99 57 106 39 9
64 -29 56 -88 -3 -30 2 -75 15 -130 12 -49 24 -151 30 -244 8 -131 15 -178 40
-260 49 -161 147 -424 166 -445 26 -29 50 -24 73 14 11 19 33 40 48 48 28 13
66 90 101 203 16 51 55 105 129 180 24 24 48 62 58 91 9 27 30 65 46 86 17 20
30 44 30 54 0 29 62 134 93 156 28 20 29 24 24 71 -7 57 -31 100 -54 95 -9 -2
-35 -40 -59 -85 -37 -71 -94 -157 -116 -173 -4 -3 -17 -27 -28 -54 -12 -26
-30 -56 -41 -67 -10 -10 -19 -25 -19 -33 0 -17 -95 -106 -113 -106 -8 0 -20 7
-27 15 -11 14 -56 190 -81 315 -34 176 -56 498 -65 981 l-6 257 35 26 c84 64
118 206 48 206 -14 0 -44 7 -66 15 -47 17 -74 18 -96 5z m-290 -359 c20 -10
48 -24 64 -30 26 -10 27 -13 27 -86 0 -71 -10 -124 -47 -254 -9 -34 -13 -69
-8 -98 6 -39 1 -56 -46 -155 -28 -62 -68 -157 -89 -213 -20 -55 -64 -154 -97
-220 -33 -66 -95 -199 -138 -295 -80 -179 -110 -234 -125 -225 -4 3 -11 49
-15 104 -5 77 -4 104 8 127 8 16 17 63 21 104 13 158 24 247 39 310 9 36 30
126 47 200 36 157 56 236 66 251 3 6 15 41 24 78 10 36 25 86 34 111 8 25 20
78 27 118 8 54 18 82 38 105 15 18 32 44 39 60 10 23 17 27 53 27 23 0 58 -8
78 -19z"/>
<path d="M8263 2534 c-18 -8 -84 -17 -147 -20 -104 -6 -118 -9 -137 -31 -14
-14 -34 -23 -54 -23 -50 0 -120 -51 -150 -110 -14 -28 -43 -68 -65 -90 -75
-75 -190 -354 -190 -460 0 -27 -6 -69 -14 -92 -8 -24 -18 -68 -22 -98 -4 -30
-13 -72 -20 -94 -8 -21 -14 -74 -14 -117 0 -68 -4 -85 -25 -120 -14 -22 -29
-38 -33 -35 -5 3 -14 1 -22 -4 -12 -7 -12 -17 -1 -59 10 -40 10 -67 1 -123 -6
-40 -16 -104 -21 -143 -6 -38 -14 -86 -19 -105 -5 -19 -12 -60 -15 -90 -4 -30
-15 -95 -26 -145 -19 -82 -20 -101 -9 -242 11 -155 22 -239 34 -250 20 -20
156 43 156 71 0 8 7 19 15 26 8 7 25 44 37 83 13 41 29 72 38 74 15 4 71 133
70 163 0 35 37 114 66 140 18 15 37 38 44 50 17 33 70 191 70 210 0 10 13 35
30 58 16 22 32 54 35 69 6 27 59 155 73 179 4 6 15 23 25 37 10 13 21 42 24
63 8 53 38 94 68 94 34 0 45 -27 45 -108 0 -38 7 -91 16 -118 11 -34 17 -93
19 -189 2 -124 6 -152 34 -250 65 -220 155 -469 182 -502 20 -23 47 -14 69 22
12 19 25 33 30 30 19 -12 41 10 60 61 11 30 27 66 36 80 9 13 21 46 25 72 6
29 18 54 32 67 13 11 35 39 47 63 13 23 38 51 56 61 24 15 36 31 44 63 7 24
27 66 45 93 18 28 40 73 49 101 12 36 31 64 67 99 51 49 51 49 47 103 -5 58
-32 97 -60 87 -9 -4 -25 -28 -36 -54 -11 -27 -48 -86 -84 -132 -35 -46 -72
-102 -82 -124 -70 -146 -173 -236 -205 -176 -11 21 -73 268 -97 391 -15 76
-30 395 -41 888 l-5 254 35 36 c52 55 87 111 87 141 -1 37 -24 64 -49 56 -11
-3 -39 3 -65 15 -52 23 -59 23 -103 4z m-265 -359 c17 -14 34 -25 39 -24 43 7
45 3 40 -93 -3 -51 -10 -112 -16 -135 -6 -24 -16 -62 -22 -85 -6 -24 -14 -79
-18 -123 -5 -69 -13 -95 -55 -180 -27 -55 -68 -156 -92 -224 -23 -68 -54 -140
-68 -160 -14 -20 -73 -142 -131 -271 -111 -247 -131 -284 -144 -275 -16 9 -24
200 -10 226 7 13 16 62 20 109 16 165 27 246 43 305 9 32 16 73 16 90 0 16 9
62 19 100 11 39 30 111 42 160 12 50 28 99 35 110 7 11 16 40 19 65 4 25 15
65 25 90 11 25 26 83 35 130 9 52 23 95 35 110 11 14 27 39 34 55 20 43 24 45
77 45 36 0 55 -6 77 -25z"/>
<path d="M9458 2327 c-41 -45 -78 -92 -82 -103 -14 -46 -68 -133 -91 -148 -13
-8 -39 -41 -57 -71 -20 -34 -42 -58 -56 -62 -12 -3 -35 -22 -49 -42 -15 -20
-42 -50 -61 -66 -32 -29 -34 -34 -27 -74 4 -23 13 -45 21 -48 8 -3 32 6 53 20
28 19 43 38 55 73 28 82 67 104 121 68 39 -26 47 -71 48 -272 0 -167 -2 -194
-22 -252 -17 -51 -24 -102 -30 -230 -10 -197 -54 -462 -131 -795 -10 -44 -16
-83 -14 -87 3 -5 23 -8 44 -8 36 0 41 4 54 33 7 19 26 43 41 55 35 28 111 136
124 176 6 17 15 62 21 100 6 37 27 107 46 155 20 47 51 125 70 174 19 48 54
126 79 173 25 46 45 92 45 100 0 31 225 447 261 483 142 140 147 144 174 137
41 -10 52 -48 32 -106 -21 -60 -21 -90 0 -135 15 -30 15 -42 5 -80 -7 -25 -12
-85 -12 -133 -1 -61 -5 -93 -15 -106 -9 -12 -15 -42 -15 -74 0 -29 -4 -61 -9
-71 -6 -10 -13 -80 -16 -157 -5 -108 -11 -151 -27 -191 -20 -48 -20 -57 -8
-110 7 -32 12 -93 11 -135 -1 -53 3 -86 14 -107 8 -17 15 -43 15 -60 0 -42 17
-81 35 -81 8 0 21 -15 29 -33 l14 -32 20 45 c12 25 33 57 48 70 14 14 53 57
85 96 32 39 71 77 87 83 20 8 41 34 69 84 31 56 47 74 72 83 18 6 40 24 51 42
11 18 26 32 35 32 20 0 57 61 106 175 42 99 44 129 8 140 -14 5 -44 -12 -112
-64 -110 -83 -121 -95 -167 -174 -35 -61 -62 -79 -102 -69 -13 3 -17 23 -22
115 -12 211 -15 649 -5 668 5 11 14 80 19 155 6 75 19 171 30 214 11 43 20 98
20 121 0 23 5 81 11 129 13 99 3 173 -23 178 -9 2 -34 -12 -55 -30 -21 -19
-58 -46 -83 -62 -66 -42 -99 -75 -126 -129 -14 -26 -46 -69 -72 -96 -49 -51
-107 -126 -131 -170 -8 -14 -33 -46 -56 -72 -25 -26 -49 -66 -59 -97 -13 -38
-29 -62 -62 -89 -51 -41 -69 -72 -95 -155 -9 -32 -30 -75 -47 -95 -39 -51 -52
-77 -52 -107 0 -14 -13 -40 -28 -58 -16 -18 -39 -54 -51 -80 -41 -87 -73 -45
-52 67 6 34 11 86 11 114 0 80 15 178 66 426 9 44 34 127 57 185 33 88 41 121
46 206 6 87 10 107 34 143 21 32 27 53 27 95 0 81 -4 86 -64 86 l-53 0 -75
-83z"/>
</g>
</svg>
